<?xml version="1.0" ?><svg style="enable-background:new 0 0 48 48;" version="1.1" viewBox="0 0 48 48" xml:space="preserve" xmlns="http://www.w3.org/2000/svg" xmlns:xlink="http://www.w3.org/1999/xlink"><g id="Icons"><g><path d="M20.21955,25.53236l0.1753,0.9023l-6.1131,1.6902c-1.0714,0.2962-2.0655,0.6325-2.9541,1.0521    c-1.7422,0.8228-2.0604,3.1289-2.7781,4.9183l-1.2801,2.0083c0,0,0.694,1.5573,4.0597,2.33    c5.5902,1.2835,14.9758,2.5413,25.3436,0.1474c1.8642-0.4305,3.1434-3.8741,3.1434-3.8741    c-0.7609-1.9057-1.2471-4.812-3.1453-5.6419c-0.8052-0.352-1.6899-0.6433-2.6347-0.9046l-6.0531-1.6792l-0.124-0.736    L20.21955,25.53236z" style="fill:#F4F4F4;"/><path d="M11.32755,29.17766v9.2555c0,0-4.3139-1.046-5.354-1.5544c0,0,0.4913-2.4907,1.6861-4.2429    S9.80295,29.79106,11.32755,29.17766z" style="fill:#464747;"/><path d="M36.67255,29.06576v9.5152c0,0,4.3138-1.1938,5.3539-1.7022c0,0-0.4913-2.4907-1.6861-4.2429    C39.14565,30.88366,38.19715,29.67916,36.67255,29.06576z" style="fill:#464747;"/><polygon points="20.18185,25.67296 20.26065,28.45576 22.74995,30.46096 27.22695,30.46096     27.60115,29.07086 28.11425,25.78616 28.11425,25.08066   " style="fill:#E2E2E2;"/><g><path d="M35.05425,16.53616c0,0-0.42-0.96-1.14-0.33c-0.6021,0.5268-0.6517,2.4032-1.9207,3.5943     c-0.4237,0.3977-0.9945,0.6057-1.5756,0.6057h-12.4784c-0.6062,0-1.2054-0.2125-1.6427-0.6324     c-1.2416-1.1922-1.295-3.0447-1.8926-3.5676c-0.72-0.63-1.14,0.33-1.14,0.33c-0.53-2.14,2.25-3.31,2.76-4.27     c0.5-0.95-0.98-0.98-0.98-0.98c2.22-2.88,5.43-1.9,5.43-1.9c3.88-2.97,7.37,0,7.37,0s3.21-0.98,5.43,1.9c0,0-1.48,0.03-0.98,0.98     C32.80425,13.22616,35.58425,14.39616,35.05425,16.53616z" style="fill:#1FAA22;"/><path d="M30.11425,20.40616v0.19c-0.02,0.35-0.05,0.64-0.07,0.86c-0.01,0.09-0.02,0.17-0.03,0.23     c-0.17,1.04-1.07,3.29-1.49,3.78c-0.1,0.12-0.25,0.23-0.41,0.32c-0.08,0.04-0.17,0.09-0.25,0.12c-0.49,0.2-0.89,0.55-1.18,0.97     c-1.25,1.82-2.28,1.5-2.5,1.39c-0.23,0.11-1.25,0.43-2.49-1.39c-0.29-0.42-0.7-0.77-1.18-0.97c-0.08-0.03-0.16-0.07-0.24-0.11     c-0.16-0.09-0.32-0.2-0.43-0.33c-0.41-0.49-1.31-2.74-1.48-3.78c-0.02-0.1-0.03-0.23-0.05-0.38c-0.03-0.25-0.05-0.55-0.06-0.9     c-0.01-0.01-0.01-0.02-0.01-0.03c-0.07-1.71,0.03-4.39,0.8-5.67c0,0,0.32-3.63,1.6-3.98c3.83,3.09,7.09,0,7.09,0     c1.27,0.35,1.59,3.98,1.59,3.98C30.10425,15.99616,30.19425,18.69616,30.11425,20.40616z" style="fill:#F4F4F4;"/><path d="M25.46025,17.04376c0,0,1.6982,1.4829,3.5333,0.2735c0,0-0.5482-1.1054-1.6673-0.9566     C26.20705,16.50926,25.46025,17.04376,25.46025,17.04376z" style="fill:#BFBFBF;"/><path d="M22.88185,17.04376c0,0-1.6982,1.4829-3.5333,0.2735c0,0,0.5482-1.1054,1.6674-0.9566     C22.13505,16.50926,22.88185,17.04376,22.88185,17.04376z" style="fill:#BFBFBF;"/><g><path d="M26.76695,22.01456c-0.8576,0.0811-2.1012,0.4882-2.53,0.8938      c-0.4289-0.4056-1.6724-0.8127-2.5301-0.8938c-0.5592-0.0529-1.0413-0.3453-1.312-0.5437      c0.286,0.2421,0.7423,0.6779,0.7977,1.0452c0.0812,0.5372,0.9974,2.8014,3.0444,2.6863      c2.0471,0.1151,2.9632-2.1491,3.0443-2.6863c0.0555-0.3674,0.5121-0.8033,0.7981-1.0454      C27.80865,21.66906,27.32635,21.96166,26.76695,22.01456z" style="fill:#F43735;"/></g><path d="M30.10425,20.59616c-0.45,1.19-1.73,0.95-1.99,0.89c-0.02-0.01-0.04-0.01-0.04-0.01     c-0.31-0.13-0.56-0.32-0.72-0.57c-0.09-0.14-0.3-0.32-0.56-0.5c-0.08-0.06-0.17-0.12-0.26-0.18c-0.01,0.06-0.03,0.12-0.05,0.18     c-0.01,0.03-0.02,0.06-0.04,0.08c-0.13,0.19-0.33,0.23-0.45,0.25c-0.07,0.02-0.12,0.03-0.18,0.06c-0.13,0.08-0.32,0.25-0.5,0.42     c-0.35,0.33-0.68,0.63-1.02,0.68c-0.02,0.01-0.04,0.01-0.06,0.01c-0.02,0-0.04,0-0.05-0.01c-0.34-0.05-0.67-0.35-1.02-0.68     c-0.19-0.17-0.37-0.34-0.5-0.42c-0.06-0.03-0.12-0.04-0.19-0.06c-0.12-0.02-0.32-0.06-0.44-0.25c-0.02-0.03-0.03-0.05-0.04-0.08     c-0.03-0.05-0.04-0.11-0.05-0.17c-0.09,0.06-0.17,0.11-0.25,0.17c-0.26,0.18-0.47,0.36-0.56,0.5c-0.09,0.13-0.2,0.25-0.33,0.35     c0,0-0.01,0-0.02,0.01c-0.15,0.08-1.42,0.68-2.51-0.86c0.4,0.32,1.18,0.42,1.44,0.42c0.36-0.02,0.65-0.19,0.75-0.35     c0.02-0.02,0.03-0.04,0.06-0.07c0.4-0.55,1.5-1.18,1.79-1.34c0.07-0.05,0.14-0.09,0.2-0.11c0.48-0.17,0.99,0.22,1.09,0.3     c0.17,0.14,0.2,0.39,0.06,0.56c-0.14,0.17-0.39,0.2-0.57,0.06c-0.09-0.08-0.23-0.15-0.3-0.16c0,0.01-0.01,0.04-0.02,0.08     c-0.02,0.08-0.03,0.14-0.03,0.18c0.1,0.03,0.21,0.06,0.32,0.13c0.13,0.07,0.26,0.18,0.4,0.3c0.08,0.07,0.16,0.15,0.24,0.22     c0.16,0.15,0.4,0.37,0.53,0.45c0.14-0.08,0.38-0.3,0.53-0.45c0.09-0.07,0.17-0.15,0.25-0.22c0.14-0.12,0.26-0.23,0.39-0.3     c0.12-0.07,0.24-0.11,0.33-0.13c-0.01-0.04-0.02-0.1-0.03-0.18c-0.02-0.08-0.04-0.1-0.04-0.1c-0.02,0.01-0.2,0.1-0.29,0.18     c-0.17,0.14-0.42,0.11-0.56-0.06c-0.14-0.17-0.12-0.42,0.06-0.56c0.09-0.08,0.6-0.47,1.09-0.3c0.05,0.02,0.11,0.05,0.17,0.09     c0.28,0.15,1.42,0.79,1.84,1.36c0.02,0.02,0.04,0.05,0.05,0.07c0.1,0.16,0.39,0.33,0.76,0.35     C29.00425,20.83616,29.69425,20.84616,30.10425,20.59616z" style="fill:#E2E2E2;"/><g><path d="M25.02155,16.19466c0.055,0.1492,0.1891,0.3347,0.2861,0.3879      c0.0828,0.0625,0.2035,0.0582,0.3611-0.0526c0.3096-0.2441,0.6238-0.7074,0.9608-1.0783      c0.3426-0.379,0.7183-0.772,1.2192-0.9755c0.5054-0.2114,1.0842-0.0825,1.4727,0.2357      c-0.4352-0.2657-0.9785-0.2953-1.3875-0.0548c-0.4139,0.2351-0.7122,0.6369-0.9877,1.0389      c-0.2923,0.4108-0.4722,0.8438-0.8929,1.2946c-0.2077,0.2232-0.6456,0.3997-1.0302,0.2316      c-0.3629-0.1607-0.5535-0.3989-0.7273-0.6907c-0.1137-0.1908-0.0511-0.4375,0.1396-0.5512      c0.1908-0.1137,0.4376-0.0512,0.5512,0.1396c0.0125,0.0209,0.0228,0.0424,0.0311,0.0644L25.02155,16.19466z" style="fill:#BFBFBF;"/><path d="M24.11265,16.53146c-0.1738,0.2918-0.3644,0.53-0.7273,0.6907      c-0.3846,0.1681-0.8226-0.0084-1.0302-0.2316c-0.4207-0.4508-0.6006-0.8838-0.893-1.2946      c-0.2754-0.402-0.5737-0.8038-0.9876-1.0389c-0.409-0.2405-0.9524-0.2109-1.3875,0.0548      c0.3885-0.3182,0.9673-0.4471,1.4727-0.2357c0.5009,0.2035,0.8766,0.5965,1.2192,0.9755      c0.337,0.3709,0.6512,0.8342,0.9608,1.0783c0.1576,0.1108,0.2783,0.1151,0.3611,0.0526      c0.0969-0.0532,0.2311-0.2387,0.2861-0.3879l0.0031-0.0082c0.0769-0.2084,0.3081-0.3149,0.5164-0.238      c0.2083,0.0769,0.3149,0.3081,0.238,0.5165C24.13595,16.48776,24.12455,16.51116,24.11265,16.53146z" style="fill:#BFBFBF;"/></g></g><g><path d="M24.75805,29.90526l0.7252-0.4801c0.5209-0.4654,1.1076-0.8511,1.7413-1.1444l0.522-0.2416     c0,0,1.6692,2.7365,0,4.4606l-0.6982-0.2666c-0.5359-0.2047-1.0451-0.4738-1.5161-0.8014l-0.8291-0.5436l-0.1048-0.6586     L24.75805,29.90526z" style="fill:#F43735;"/><path d="M23.20135,29.93016l-0.8162-0.6226c-0.4335-0.3874-0.9221-0.7085-1.4497-0.9528l-0.682-0.3156     c0,0-1.6692,2.7365,0,4.4606l0.8334-0.3183c0.4462-0.1702,0.87-0.3944,1.2622-0.6671l0.8523-0.5564v-0.8681V29.93016z" style="fill:#F43735;"/><path d="M24.38445,31.43436h-0.7384c-0.3472,0-0.6285-0.2814-0.6285-0.6286v-0.6897     c0-0.3471,0.2813-0.6285,0.6285-0.6285h0.7384c0.3471,0,0.6285,0.2814,0.6285,0.6285v0.6897     C25.01295,31.15296,24.73155,31.43436,24.38445,31.43436z" style="fill:#CE2424;"/></g></g></g></svg>