<?xml version="1.0" ?><!DOCTYPE svg  PUBLIC '-//W3C//DTD SVG 1.1//EN'  'http://www.w3.org/Graphics/SVG/1.1/DTD/svg11.dtd'><svg enable-background="new 0 0 512 512" height="512" id="Layer_1" overflow="visible" version="1.1" viewBox="0 0 512 512" width="512" xml:space="preserve" xmlns="http://www.w3.org/2000/svg" xmlns:xlink="http://www.w3.org/1999/xlink"><g><ellipse cx="256.034" cy="255.118" fill="#FFFFFF" rx="237.824" ry="228.051" stroke="#000000" stroke-width="30.3645"/><g><g><g><path d="M401.65,247.35c0,80.783-65.487,146.27-146.266,146.27c-80.782,0-146.269-65.487-146.269-146.27      c0-80.786,65.487-146.271,146.269-146.271C336.163,101.079,401.65,166.564,401.65,247.35z" fill="#FFFFFF"/><g><line fill="none" stroke="#131414" stroke-linecap="round" stroke-linejoin="round" stroke-width="4.9473" x1="268.452" x2="265.291" y1="404.317" y2="382.774"/><line fill="none" stroke="#131414" stroke-linecap="round" stroke-linejoin="round" stroke-width="4.9473" x1="292.408" x2="285.936" y1="399.739" y2="378.948"/><line fill="none" stroke="#131414" stroke-linecap="round" stroke-linejoin="round" stroke-width="4.9473" x1="315.362" x2="305.729" y1="391.479" y2="371.954"/><line fill="none" stroke="#131414" stroke-linecap="round" stroke-linejoin="round" stroke-width="4.9473" x1="336.746" x2="324.19" y1="379.753" y2="361.965"/><line fill="none" stroke="#131414" stroke-linecap="round" stroke-linejoin="round" stroke-width="4.9473" x1="356.049" x2="340.865" y1="364.838" y2="349.219"/><line fill="none" stroke="#131414" stroke-linecap="round" stroke-linejoin="round" stroke-width="4.9473" x1="372.784" x2="355.362" y1="347.096" y2="334.03"/><line fill="none" stroke="#131414" stroke-linecap="round" stroke-linejoin="round" stroke-width="4.9473" x1="386.561" x2="367.314" y1="326.965" y2="316.773"/><line fill="none" stroke="#131414" stroke-linecap="round" stroke-linejoin="round" stroke-width="4.9473" x1="397.03" x2="376.433" y1="304.94" y2="297.859"/><line fill="none" stroke="#131414" stroke-linecap="round" stroke-linejoin="round" stroke-width="4.9473" x1="403.948" x2="382.499" y1="281.544" y2="277.768"/><line fill="none" stroke="#131414" stroke-linecap="round" stroke-linejoin="round" stroke-width="4.9473" x1="407.121" x2="385.355" y1="257.364" y2="256.969"/><line fill="none" stroke="#131414" stroke-linecap="round" stroke-linejoin="round" stroke-width="4.9473" x1="406.515" x2="384.939" y1="232.978" y2="235.98"/><line fill="none" stroke="#131414" stroke-linecap="round" stroke-linejoin="round" stroke-width="4.9473" x1="402.104" x2="381.26" y1="208.994" y2="215.313"/><line fill="none" stroke="#131414" stroke-linecap="round" stroke-linejoin="round" stroke-width="4.9473" x1="394.013" x2="374.415" y1="185.978" y2="195.473"/><line fill="none" stroke="#131414" stroke-linecap="round" stroke-linejoin="round" stroke-width="4.9473" x1="382.438" x2="364.552" y1="164.507" y2="176.946"/><line fill="none" stroke="#131414" stroke-linecap="round" stroke-linejoin="round" stroke-width="4.9473" x1="367.657" x2="351.931" y1="145.106" y2="160.163"/><line fill="none" stroke="#131414" stroke-linecap="round" stroke-linejoin="round" stroke-width="4.9473" x1="350.037" x2="336.845" y1="128.24" y2="145.567"/><line fill="none" stroke="#131414" stroke-linecap="round" stroke-linejoin="round" stroke-width="4.9473" x1="332.575" x2="322.242" y1="115.603" y2="134.778"/><line fill="none" stroke="#131414" stroke-linecap="round" stroke-linejoin="round" stroke-width="4.9473" x1="308.052" x2="300.835" y1="103.69" y2="124.236"/><line fill="none" stroke="#131414" stroke-linecap="round" stroke-linejoin="round" stroke-width="4.9473" x1="284.707" x2="280.779" y1="96.61" y2="118.031"/><line fill="none" stroke="#131414" stroke-linecap="round" stroke-linejoin="round" stroke-width="4.9473" x1="260.552" x2="260.006" y1="93.25" y2="115.024"/><g><line fill="none" stroke="#131414" stroke-linecap="round" stroke-linejoin="round" stroke-width="4.9473" x1="297.376" x2="291.78" y1="95.625" y2="116.67"/><line fill="none" stroke="#131414" stroke-linecap="round" stroke-linejoin="round" stroke-width="4.9473" x1="273.555" x2="271.304" y1="90.382" y2="112.043"/><line fill="none" stroke="#131414" stroke-linecap="round" stroke-linejoin="round" stroke-width="4.9473" x1="276.882" x2="272.67" y1="399.2" y2="377.837"/><line fill="none" stroke="#131414" stroke-linecap="round" stroke-linejoin="round" stroke-width="4.9473" x1="300.586" x2="293.097" y1="393.446" y2="372.992"/><line fill="none" stroke="#131414" stroke-linecap="round" stroke-linejoin="round" stroke-width="4.9473" x1="323.106" x2="312.521" y1="384.07" y2="365.035"/><line fill="none" stroke="#131414" stroke-linecap="round" stroke-linejoin="round" stroke-width="4.9473" x1="343.89" x2="330.468" y1="371.301" y2="354.148"/><line fill="none" stroke="#131414" stroke-linecap="round" stroke-linejoin="round" stroke-width="4.9473" x1="362.424" x2="346.502" y1="355.45" y2="340.603"/><line fill="none" stroke="#131414" stroke-linecap="round" stroke-linejoin="round" stroke-width="4.9473" x1="378.275" x2="360.229" y1="336.914" y2="324.72"/><line fill="none" stroke="#131414" stroke-linecap="round" stroke-linejoin="round" stroke-width="4.9473" x1="391.043" x2="371.32" y1="316.132" y2="306.892"/><line fill="none" stroke="#131414" stroke-linecap="round" stroke-linejoin="round" stroke-width="4.9473" x1="400.412" x2="379.49" y1="293.608" y2="287.558"/><line fill="none" stroke="#131414" stroke-linecap="round" stroke-linejoin="round" stroke-width="4.9473" x1="406.17" x2="384.559" y1="269.91" y2="267.189"/><line fill="none" stroke="#131414" stroke-linecap="round" stroke-linejoin="round" stroke-width="4.9473" x1="408.159" x2="386.391" y1="245.598" y2="246.276"/><line fill="none" stroke="#131414" stroke-linecap="round" stroke-linejoin="round" stroke-width="4.9473" x1="406.342" x2="384.944" y1="221.273" y2="225.336"/><line fill="none" stroke="#131414" stroke-linecap="round" stroke-linejoin="round" stroke-width="4.9473" x1="400.755" x2="380.259" y1="197.528" y2="204.877"/><line fill="none" stroke="#131414" stroke-linecap="round" stroke-linejoin="round" stroke-width="4.9473" x1="391.545" x2="372.438" y1="174.945" y2="185.389"/><line fill="none" stroke="#131414" stroke-linecap="round" stroke-linejoin="round" stroke-width="4.9473" x1="378.931" x2="361.679" y1="154.071" y2="167.362"/><line fill="none" stroke="#131414" stroke-linecap="round" stroke-linejoin="round" stroke-width="4.9473" x1="363.211" x2="348.239" y1="135.413" y2="151.233"/><line fill="none" stroke="#131414" stroke-linecap="round" stroke-linejoin="round" stroke-width="4.9473" x1="344.787" x2="332.466" y1="119.432" y2="137.396"/><line fill="none" stroke="#131414" stroke-linecap="round" stroke-linejoin="round" stroke-width="4.9473" x1="324.093" x2="314.716" y1="106.525" y2="126.173"/></g><line fill="none" stroke="#131414" stroke-linecap="round" stroke-linejoin="round" stroke-width="4.9473" x1="242.316" x2="245.475" y1="404.317" y2="382.774"/><line fill="none" stroke="#131414" stroke-linecap="round" stroke-linejoin="round" stroke-width="4.9473" x1="218.357" x2="224.833" y1="399.739" y2="378.948"/><line fill="none" stroke="#131414" stroke-linecap="round" stroke-linejoin="round" stroke-width="4.9473" x1="195.404" x2="205.04" y1="391.479" y2="371.954"/><line fill="none" stroke="#131414" stroke-linecap="round" stroke-linejoin="round" stroke-width="4.9473" x1="174.024" x2="186.577" y1="379.753" y2="361.965"/><line fill="none" stroke="#131414" stroke-linecap="round" stroke-linejoin="round" stroke-width="4.9473" x1="154.723" x2="169.898" y1="364.838" y2="349.219"/><line fill="none" stroke="#131414" stroke-linecap="round" stroke-linejoin="round" stroke-width="4.9473" x1="137.981" x2="155.408" y1="347.096" y2="334.03"/><line fill="none" stroke="#131414" stroke-linecap="round" stroke-linejoin="round" stroke-width="4.9473" x1="124.21" x2="143.454" y1="326.965" y2="316.773"/><line fill="none" stroke="#131414" stroke-linecap="round" stroke-linejoin="round" stroke-width="4.9473" x1="113.735" x2="134.335" y1="304.94" y2="297.859"/><line fill="none" stroke="#131414" stroke-linecap="round" stroke-linejoin="round" stroke-width="4.9473" x1="106.823" x2="128.271" y1="281.544" y2="277.768"/><line fill="none" stroke="#131414" stroke-linecap="round" stroke-linejoin="round" stroke-width="4.9473" x1="103.638" x2="125.41" y1="257.364" y2="256.969"/><line fill="none" stroke="#131414" stroke-linecap="round" stroke-linejoin="round" stroke-width="4.9473" x1="104.257" x2="125.828" y1="232.978" y2="235.98"/><line fill="none" stroke="#131414" stroke-linecap="round" stroke-linejoin="round" stroke-width="4.9473" x1="108.666" x2="129.507" y1="208.994" y2="215.313"/><line fill="none" stroke="#131414" stroke-linecap="round" stroke-linejoin="round" stroke-width="4.9473" x1="116.757" x2="136.358" y1="185.978" y2="195.473"/><line fill="none" stroke="#131414" stroke-linecap="round" stroke-linejoin="round" stroke-width="4.9473" x1="128.335" x2="146.211" y1="164.507" y2="176.946"/><line fill="none" stroke="#131414" stroke-linecap="round" stroke-linejoin="round" stroke-width="4.9473" x1="143.109" x2="158.834" y1="145.106" y2="160.163"/><line fill="none" stroke="#131414" stroke-linecap="round" stroke-linejoin="round" stroke-width="4.9473" x1="160.732" x2="173.926" y1="128.24" y2="145.567"/><line fill="none" stroke="#131414" stroke-linecap="round" stroke-linejoin="round" stroke-width="4.9473" x1="180.761" x2="191.087" y1="114.319" y2="133.496"/><line fill="none" stroke="#131414" stroke-linecap="round" stroke-linejoin="round" stroke-width="4.9473" x1="202.717" x2="209.934" y1="103.69" y2="124.236"/><line fill="none" stroke="#131414" stroke-linecap="round" stroke-linejoin="round" stroke-width="4.9473" x1="226.057" x2="229.988" y1="96.61" y2="118.031"/><line fill="none" stroke="#131414" stroke-linecap="round" stroke-linejoin="round" stroke-width="4.9473" x1="250.216" x2="250.767" y1="93.25" y2="115.024"/><g><line fill="none" stroke="#131414" stroke-linecap="round" stroke-linejoin="round" stroke-width="4.9473" x1="213.391" x2="218.987" y1="95.625" y2="116.67"/><line fill="none" stroke="#131414" stroke-linecap="round" stroke-linejoin="round" stroke-width="4.9473" x1="237.212" x2="239.465" y1="90.382" y2="112.043"/><line fill="none" stroke="#131414" stroke-linecap="round" stroke-linejoin="round" stroke-width="4.9473" x1="233.883" x2="238.1" y1="399.2" y2="377.837"/><line fill="none" stroke="#131414" stroke-linecap="round" stroke-linejoin="round" stroke-width="4.9473" x1="256.025" x2="255.311" y1="401.966" y2="380.194"/><line fill="none" stroke="#131414" stroke-linecap="round" stroke-linejoin="round" stroke-width="4.9473" x1="210.179" x2="217.672" y1="393.446" y2="372.992"/><line fill="none" stroke="#131414" stroke-linecap="round" stroke-linejoin="round" stroke-width="4.9473" x1="187.66" x2="198.246" y1="384.07" y2="365.035"/><line fill="none" stroke="#131414" stroke-linecap="round" stroke-linejoin="round" stroke-width="4.9473" x1="166.88" x2="180.298" y1="371.301" y2="354.148"/><line fill="none" stroke="#131414" stroke-linecap="round" stroke-linejoin="round" stroke-width="4.9473" x1="148.34" x2="164.265" y1="355.45" y2="340.603"/><line fill="none" stroke="#131414" stroke-linecap="round" stroke-linejoin="round" stroke-width="4.9473" x1="132.492" x2="150.541" y1="336.914" y2="324.72"/><line fill="none" stroke="#131414" stroke-linecap="round" stroke-linejoin="round" stroke-width="4.9473" x1="119.724" x2="139.449" y1="316.132" y2="306.892"/><line fill="none" stroke="#131414" stroke-linecap="round" stroke-linejoin="round" stroke-width="4.9473" x1="110.35" x2="131.271" y1="293.608" y2="287.558"/><line fill="none" stroke="#131414" stroke-linecap="round" stroke-linejoin="round" stroke-width="4.9473" x1="104.599" x2="126.206" y1="269.91" y2="267.189"/><line fill="none" stroke="#131414" stroke-linecap="round" stroke-linejoin="round" stroke-width="4.9473" x1="102.607" x2="124.375" y1="245.598" y2="246.276"/><line fill="none" stroke="#131414" stroke-linecap="round" stroke-linejoin="round" stroke-width="4.9473" x1="104.426" x2="125.819" y1="221.273" y2="225.336"/><line fill="none" stroke="#131414" stroke-linecap="round" stroke-linejoin="round" stroke-width="4.9473" x1="110.006" x2="130.51" y1="197.528" y2="204.877"/><line fill="none" stroke="#131414" stroke-linecap="round" stroke-linejoin="round" stroke-width="4.9473" x1="119.218" x2="138.332" y1="174.945" y2="185.389"/><line fill="none" stroke="#131414" stroke-linecap="round" stroke-linejoin="round" stroke-width="4.9473" x1="131.84" x2="149.089" y1="154.071" y2="167.362"/><line fill="none" stroke="#131414" stroke-linecap="round" stroke-linejoin="round" stroke-width="4.9473" x1="148.41" x2="163.377" y1="133.277" y2="149.094"/><line fill="none" stroke="#131414" stroke-linecap="round" stroke-linejoin="round" stroke-width="4.9473" x1="168.545" x2="180.867" y1="116.866" y2="134.829"/><line fill="none" stroke="#131414" stroke-linecap="round" stroke-linejoin="round" stroke-width="4.9473" x1="188.811" x2="198.186" y1="105.664" y2="125.323"/></g></g></g><g><text fill="#070102" font-family="'SanKsM'" font-size="67.792" letter-spacing="-1" transform="matrix(1 0.0077 -0.0077 1 245.9302 234.1987)"/></g></g></g><g><defs><path d="M479.713,244.075c0,120.977-102.274,219.043-228.431,219.043c-126.158,0-228.432-98.066-228.432-219.043     c0-120.974,102.273-219.043,228.432-219.043C377.438,25.032,479.713,123.102,479.713,244.075z" id="XMLID_1_"/></defs><clipPath id="XMLID_3_"><use xlink:href="#XMLID_1_"/></clipPath><g clip-path="url(#XMLID_3_)"><path d="     M213.017,192.63c-10.862,8.138-26.467,19.363-21.221,34.601c3.368,9.777,15.204,16.822,23.942,11.672" fill="#FFFFFF" stroke="#000000" stroke-linecap="round" stroke-linejoin="round" stroke-width="13.3261"/><path d="     M336.311,263.929c4.964,3.606,10.669,8.511,16.705,10.039c2.021,0.51,13.734,2.427,14.927,2.03     c13.147-4.362-17.954-32.058-20.404-34.38c-46.517-44.092-97.883-90.177-162.503-103.75     c-30.717-6.451-73.046-13.219-102.315,2.255c-2.77,1.465-4.54,4.526-7.401,6.099c17.388,0.274,32.577,4.777,49.173,9.896     c17.203,5.305,33.732,12.761,48.894,22.494c9.022,5.792,14.093,11.116,24.245,8.812c7.684-1.737,19.26-3.968,18.975,8.84     c10.658-10.126,28.998,4.205,38.333,10.03c17.158,10.708,33.119,21.274,49.127,33.583     C314.697,248.05,325.465,256.046,336.311,263.929z" fill="#FFFFFF" stroke="#000000" stroke-linecap="round" stroke-linejoin="round" stroke-width="13.3261"/><path d="     M265.354,230.339c0.227,1.625,0.252,3.251,0.036,4.829c-1.335,9.711-12.777,13.254-21.074,14.971     c-9.286,1.922-25.286-7.723-29.899-15.326c-4.428-7.303-5.405-19.002-0.249-26.286c8.738-12.34,31.797-2.564,41.181,4.737     C260.18,217.021,264.432,223.712,265.354,230.339z" fill="#FFFFFF" stroke="#000000" stroke-linecap="round" stroke-linejoin="round" stroke-width="13.3261"/><path d="     M219.779,241.272c-6.97-2.145-14.777-2.758-21.156-6.53c-8.021-4.739-5.886-9.752-10.695-15.973     c-5.977-7.731-16.978-4.749-24.736-8.724c-7.122-3.656-14.696-13.209-16.494-21.002c-7.977,22.755,22.337,48.453,37.397,61.396     c15.61,13.419,31.174,17.906,50.648,19.371c14.35,1.083,24.113,9.237,28.417,23.762c1.902,6.42,0.855,13.778,5.681,19.216     c6.119,6.898,15.757,5.617,23.628,5.396c29.849-0.851,54.589,9.505,78.766,25.798c19.063,12.85,31.64,31.87,48.774,46.306     c-6.73-16.295-11.528-29.358-23.435-42.946c-15.633-17.847-33.773-33.482-52.707-47.189c-6.378-4.615-12.456-9.171-18.344-14.805     c-5.031-4.808-11.3-11.743-17.944-13.569c-5.291-1.464-11.677,0.691-17.146,0.617c-7.327-0.098-15.05-1.229-22.104-2.75     c-9.186-1.979-17.569-6.305-24.849-11.556C234.745,251.788,230.64,244.61,219.779,241.272z" fill="#FFFFFF" stroke="#000000" stroke-linecap="round" stroke-linejoin="round" stroke-width="13.3261"/><path d="     M219.779,241.272c-6.97-2.145-14.777-2.758-21.156-6.53c-8.021-4.739-5.886-9.752-10.695-15.973     c-5.977-7.731-16.978-4.749-24.736-8.724c-7.122-3.656-14.696-13.209-16.494-21.002c-7.977,22.755,22.337,48.453,37.397,61.396     c15.61,13.419,31.174,17.906,50.648,19.371c14.35,1.083,24.113,9.237,28.417,23.762c1.902,6.42,0.855,13.778,5.681,19.216     c6.119,6.898,15.757,5.617,23.628,5.396c29.849-0.851,54.589,9.505,78.766,25.798c19.063,12.85,31.64,31.87,48.774,46.306     c-6.73-16.295-11.528-29.358-23.435-42.946c-15.633-17.847-33.773-33.482-52.707-47.189c-6.378-4.615-12.456-9.171-18.344-14.805     c-5.031-4.808-11.3-11.743-17.944-13.569c-5.291-1.464-11.677,0.691-17.146,0.617c-7.327-0.098-15.05-1.229-22.104-2.75     c-9.186-1.979-17.569-6.305-24.849-11.556C234.745,251.788,230.64,244.61,219.779,241.272z" fill="#FFFFFF" stroke="#000000" stroke-linecap="round" stroke-linejoin="round" stroke-width="13.3261"/><path d="     M435.119,405.18c-8.554-0.871-16.632-24.479-19.271-30.329c-6.75-14.967-15.965-26.289-28.445-37.026     c-13.406-11.542-25.542-21.566-40.176-31.171c-7.317-4.803-14.346-9.947-21.62-14.937c-4.236-2.917-8.999-5.99-13.27-8.558     c-6.252-3.792-13.958,0.528-10.498-9.207c1.359-3.819,1.544-7.721,1.374-11.824c-0.37-9-3.505-17.223-7.453-25.224     c-2.31-4.676-5.502-8.593-2.667-13.878c4.581-8.545,13.908-2.776,20.149,0.435c44.143,22.71,72.316,68.222,107.832,101.922     c12.987,12.325,25.828,24.445,37.672,37.484" fill="#FFFFFF" stroke="#000000" stroke-linecap="round" stroke-linejoin="round" stroke-width="13.3261"/><path d="     M423.665,392.659c-3.609-6.944-6.446-14.771-7.817-17.809c-6.75-14.967-15.965-26.289-28.445-37.026     c-13.406-11.542-25.542-21.566-40.176-31.171c-7.317-4.803-14.346-9.947-21.62-14.937c-4.188-2.879-8.538-6.26-13.123-8.472     c-2.302-1.109-6.627-1.111-8.371-2.546c-4.725-3.876-0.651-14.293-0.935-19.36c-0.488-8.704-3.596-16.693-7.42-24.436     c-2.311-4.675-5.5-8.592-2.665-13.877c4.581-8.545,13.908-2.776,20.149,0.435c44.143,22.71,72.316,68.222,107.832,101.922     c10.012,9.501,19.936,18.88,29.383,28.652" fill="#FFFFFF" stroke="#000000" stroke-linecap="round" stroke-linejoin="round" stroke-width="13.3261"/><path d="     M327.107,231.027c6.375,18.42,13.39,40.97,5.106,58.896" fill="#FFFFFF" stroke="#000000" stroke-linecap="round" stroke-linejoin="round" stroke-width="13.3261"/><path d="     M361.111,263.631c4,18.053,4.313,31.071-3.838,46.662" fill="#FFFFFF" stroke="#000000" stroke-linecap="round" stroke-linejoin="round" stroke-width="13.3261"/><path d="     M395.685,302.62c3.407,11.226,10.449,29.737,4.786,41.18" fill="#FFFFFF" stroke="#000000" stroke-linecap="round" stroke-linejoin="round" stroke-width="13.3261"/></g></g></g></svg>